<mxfile host="65bd71144e">
    <diagram id="PDYjYKHrJcg0mU1587DH" name="Page-1">
        <mxGraphModel dx="532" dy="318" grid="1" gridSize="10" guides="1" tooltips="1" connect="1" arrows="1" fold="1" page="1" pageScale="1" pageWidth="827" pageHeight="1169" math="0" shadow="0">
            <root>
                <mxCell id="0"/>
                <mxCell id="1" parent="0"/>
                <mxCell id="4" value="" style="edgeStyle=orthogonalEdgeStyle;rounded=0;orthogonalLoop=1;jettySize=auto;html=1;exitX=0.5;exitY=1;exitDx=0;exitDy=0;" parent="1" source="8" target="byu2h8sqv4K67BwK0CkO-2" edge="1">
                    <mxGeometry relative="1" as="geometry">
                        <mxPoint x="355" y="320" as="sourcePoint"/>
                    </mxGeometry>
                </mxCell>
                <mxCell id="byu2h8sqv4K67BwK0CkO-2" value="Save Background (con x,y giÃ  presenti quindi) di TUTTI i bob insieme" style="rounded=0;whiteSpace=wrap;html=1;" parent="1" vertex="1">
                    <mxGeometry x="280" y="370" width="150" height="90" as="geometry"/>
                </mxCell>
                <mxCell id="byu2h8sqv4K67BwK0CkO-3" value="Blit di TUTTI i bob insieme" style="rounded=0;whiteSpace=wrap;html=1;" parent="1" vertex="1">
                    <mxGeometry x="280" y="510" width="150" height="90" as="geometry"/>
                </mxCell>
                <mxCell id="byu2h8sqv4K67BwK0CkO-4" value="" style="endArrow=classic;html=1;exitX=0.5;exitY=1;exitDx=0;exitDy=0;entryX=0.5;entryY=0;entryDx=0;entryDy=0;" parent="1" edge="1">
                    <mxGeometry width="50" height="50" relative="1" as="geometry">
                        <mxPoint x="354.5" y="160" as="sourcePoint"/>
                        <mxPoint x="354.5" y="220" as="targetPoint"/>
                    </mxGeometry>
                </mxCell>
                <mxCell id="byu2h8sqv4K67BwK0CkO-6" value="" style="endArrow=classic;html=1;exitX=0.5;exitY=1;exitDx=0;exitDy=0;entryX=0.5;entryY=0;entryDx=0;entryDy=0;" parent="1" source="byu2h8sqv4K67BwK0CkO-2" target="byu2h8sqv4K67BwK0CkO-3" edge="1">
                    <mxGeometry width="50" height="50" relative="1" as="geometry">
                        <mxPoint x="390" y="410" as="sourcePoint"/>
                        <mxPoint x="440" y="360" as="targetPoint"/>
                    </mxGeometry>
                </mxCell>
                <mxCell id="byu2h8sqv4K67BwK0CkO-7" value="" style="curved=1;endArrow=classic;html=1;exitX=0;exitY=0.5;exitDx=0;exitDy=0;entryX=0;entryY=0.5;entryDx=0;entryDy=0;" parent="1" source="byu2h8sqv4K67BwK0CkO-3" edge="1">
                    <mxGeometry width="50" height="50" relative="1" as="geometry">
                        <mxPoint x="390" y="410" as="sourcePoint"/>
                        <mxPoint x="280" y="125" as="targetPoint"/>
                        <Array as="points">
                            <mxPoint x="140" y="420"/>
                            <mxPoint x="120" y="210"/>
                        </Array>
                    </mxGeometry>
                </mxCell>
                <mxCell id="5" value="Calcola il nuovo offset&lt;br&gt;dello sfondo" style="ellipse;shape=cloud;whiteSpace=wrap;html=1;" parent="1" vertex="1">
                    <mxGeometry x="550" y="365" width="160" height="100" as="geometry"/>
                </mxCell>
                <mxCell id="6" value="" style="endArrow=classic;html=1;exitX=0.16;exitY=0.55;exitDx=0;exitDy=0;exitPerimeter=0;entryX=1;entryY=0.5;entryDx=0;entryDy=0;" parent="1" source="5" target="byu2h8sqv4K67BwK0CkO-2" edge="1">
                    <mxGeometry width="50" height="50" relative="1" as="geometry">
                        <mxPoint x="420" y="370" as="sourcePoint"/>
                        <mxPoint x="470" y="320" as="targetPoint"/>
                    </mxGeometry>
                </mxCell>
                <mxCell id="7" value="Aggiornamento posizioni Bob" style="rounded=0;whiteSpace=wrap;html=1;" vertex="1" parent="1">
                    <mxGeometry x="280" y="70" width="150" height="90" as="geometry"/>
                </mxCell>
                <mxCell id="8" value="Restore Background di TUTTI i bob insieme, con il precedente offset, tranne se primissimo blit" style="rounded=0;whiteSpace=wrap;html=1;" vertex="1" parent="1">
                    <mxGeometry x="280" y="220" width="150" height="90" as="geometry"/>
                </mxCell>
            </root>
        </mxGraphModel>
    </diagram>
</mxfile>